<svg width="96" height="96" viewBox="0 0 96 96" fill="none" xmlns="http://www.w3.org/2000/svg">
<path d="M65.0289 43.3952V31.1999C66.7547 29.7426 72.0469 27.2307 79.4101 28.8414L82.1713 35.9746L71.4717 44.4882L65.0289 43.3952Z" fill="black"/>
<path d="M8.36468 74.2725C10.5796 75.6501 13.5708 76.9657 17.5117 77.9767C17.4057 79.0309 17.8654 80.0903 18.7645 80.7262C23.8064 84.2926 36.1958 87.2901 49.4909 76.4369C56.6647 73.7923 68.6858 64.5183 68.1883 46.2903C70.5959 46.0245 73.3099 45.2288 75.7521 43.5435C78.6892 41.5167 80.9992 38.3636 81.9769 33.8673C83.2595 35.2049 84.7832 37.3227 86.2475 40.5721C86.8202 41.8429 88.1926 42.5519 89.5604 42.2834C90.9282 42.015 91.9309 40.8398 91.9807 39.4468C92.1612 34.4009 91.1084 26.91 87.092 20.9834C85.0499 17.9701 82.2173 15.332 78.3952 13.7038C74.5749 12.0764 69.9687 11.5442 64.5143 12.4157C52.2369 14.3773 44.8582 18.6141 40.3109 23.7437C35.8568 28.768 34.4374 34.3268 33.4626 38.1447L33.4319 38.2649L33.7317 38.3414L33.4319 38.2649C33.3918 38.4216 33.3528 38.5742 33.3146 38.7233L3.97436 65.581C3.0788 66.4008 2.76565 67.6795 3.18108 68.8204C3.84046 70.6311 5.65078 72.5844 8.36468 74.2725Z" stroke="black" stroke-width="6" stroke-linejoin="round"/>
<circle cx="55.4067" cy="26.6279" r="6.5" fill="black"/>
</svg>
