<svg width="26" height="24" viewBox="0 0 26 24" fill="none" xmlns="http://www.w3.org/2000/svg">
<path fill-rule="evenodd" clip-rule="evenodd" d="M9.99838 10.0845L2.49995 16.9485C2.57237 17.1474 2.80372 17.4562 3.26376 17.7829C3.4761 17.9337 3.73715 18.0883 4.05378 18.2376C4.17332 18.2939 4.30077 18.3495 4.43652 18.4039C4.95473 18.6115 5.59377 18.801 6.37414 18.9453L6.1242 19.5693C6.16167 19.5958 6.20164 19.6224 6.24403 19.6489C6.56439 19.8491 7.02281 20.0437 7.58635 20.155C7.72406 20.1822 7.86806 20.2044 8.01785 20.2205C9.33757 20.3623 11.1072 20.0295 12.9978 18.4461C14.3765 17.9871 16.8354 16.2758 17.2426 12.8393C17.3149 12.2283 17.3225 11.5628 17.2476 10.8401L17.246 10.8399L17.2572 7.71971C17.6857 7.35782 19.0548 6.82718 20.8772 7.21478C21.2142 7.25215 21.9562 7.63573 22.6983 8.80779C22.8828 9.09917 23.0673 9.43928 23.2456 9.83493C23.2891 8.61849 23.0146 6.82131 22.0306 5.49527C21.1301 4.28182 19.6355 3.4629 17.2469 3.84455C11.353 4.78626 10.5736 7.83751 10.0846 9.75187C10.0552 9.86711 10.0268 9.97823 9.99838 10.0845ZM2.43092 19.6296C2.95314 19.9544 3.58932 20.2514 4.35311 20.4986C4.49633 20.7718 4.70414 21.0146 4.96923 21.2021C6.6583 22.3968 10.2955 23.1302 14.0061 20.2036C16.0361 19.3718 18.9803 16.9629 19.2771 12.5839C19.7369 12.4374 20.2037 12.2213 20.6479 11.9147C21.0142 11.662 21.3444 11.3621 21.6315 11.0162C22.0822 11.6325 22.8576 11.9492 23.6308 11.7975C24.5427 11.6185 25.2111 10.8351 25.2443 9.90641C25.2952 8.48379 25.01 6.31865 23.8077 4.54461C23.184 3.62427 22.298 2.79115 21.0886 2.27598C19.8805 1.76133 18.4847 1.62141 16.9313 1.8696C13.658 2.39261 11.5193 3.55339 10.1423 5.10675C8.90579 6.50158 8.46236 8.03243 8.20989 9.01028L1.14953 15.4733C0.552491 16.0198 0.343723 16.8723 0.620675 17.6328C0.9214 18.4587 1.6388 19.1369 2.43092 19.6296Z" fill="#171717"/>
<circle cx="14.8517" cy="6.65698" r="1.625" fill="#171717"/>
</svg>
